<svg width="17" height="17" viewBox="0 0 17 17" fill="none" xmlns="http://www.w3.org/2000/svg">
<path d="M11.9895 0.626306L16.4632 5.09999C17.2684 5.90525 17.2684 7.15788 16.4632 7.96315L8.67895 15.7474H14.1368C14.4947 15.7474 14.7632 16.0158 14.7632 16.2842V16.3737C14.7632 16.7316 14.4947 17 14.2263 17H14.1368H6.62105C6.08421 17 5.54737 16.821 5.1 16.3737L0.626317 11.9C-0.178946 11.0947 -0.178946 9.8421 0.626317 9.03683L9.12632 0.536833C9.93158 -0.178957 11.1842 -0.178957 11.9895 0.626306ZM2.86316 8.76841L1.52105 10.1105C1.25263 10.3789 1.25263 10.8263 1.52105 11.0947L5.99474 15.5684C6.08421 15.6579 6.26316 15.7474 6.44211 15.7474C6.62105 15.7474 6.71053 15.6579 6.88947 15.5684L8.23158 14.2263L2.86316 8.76841ZM10.0211 1.52104L3.7579 7.7842L9.12632 13.1526L15.3895 6.88946C15.6579 6.62104 15.6579 6.17367 15.3895 5.90525L10.9158 1.43157C10.7368 1.25262 10.2895 1.25262 10.0211 1.52104Z" fill="#02E7B1"/>
</svg>
